<svg xmlns="http://www.w3.org/2000/svg" xmlns:xlink="http://www.w3.org/1999/xlink" width="24" height="24" viewBox="0 0 24 24">
    <defs>
        <path id="a" d="M16.65 6.04l-4.84-.42-1.89-4.45c-.34-.81-1.5-.81-1.84 0L6.19 5.63l-4.83.41C.48 6.11.12 7.21.79 7.79l3.67 3.18-1.1 4.72c-.2.86.73 1.54 1.49 1.08L9 14.27l4.15 2.51c.76.46 1.69-.22 1.49-1.08l-1.1-4.73 3.67-3.18c.67-.58.32-1.68-.56-1.75zM9 12.4V3.1l1.71 4.04 4.38.38-3.32 2.88 1 4.28L9 12.4z"/>
    </defs>
    <g fill="none" fill-rule="evenodd" transform="translate(3 3)">
        <mask id="b" fill="#fff">
            <use xlink:href="#a"/>
        </mask>
        <use fill="#000" fill-rule="nonzero" xlink:href="#a"/>
        <g fill="#000" mask="url(#b)">
            <path d="M-3-3h24v24H-3z"/>
        </g>
    </g>
</svg>
